<?xml version="1.0" encoding="UTF-8"?>
<svg width="60px" height="60px" viewBox="0 0 60 60" version="1.1" xmlns="http://www.w3.org/2000/svg" xmlns:xlink="http://www.w3.org/1999/xlink">
    <!-- Generator: Sketch 40.3 (33839) - http://www.bohemiancoding.com/sketch -->
    <title>mountainview_logo</title>
    <desc>Created with Sketch.</desc>
    <defs></defs>
    <g id="Page-1" stroke="none" stroke-width="1" fill="none" fill-rule="evenodd">
        <g id="Artboard" transform="translate(-166.000000, -270.000000)" fill="#FFFFFF">
            <path d="M221.641,304.133 C220.77,304.054 219.892,304 219,304 C217.986,304 216.988,304.067 216,304.166 L216,295 L205.689,280 L186,280 L176,295 L176,301.295 C173.978,301.569 172.012,302.021 170.137,302.676 C170.047,301.795 170,300.903 170,300 C170,285.64 181.641,274 196,274 C210.36,274 222,285.64 222,300 C222,301.41 221.857,302.783 221.641,304.133 L221.641,304.133 Z M219.355,311.37 C214.205,312.023 209.735,313.765 206.16,316.312 C205.484,315.11 204.728,313.958 203.898,312.866 C208.154,309.812 213.36,308 219,308 C219.576,308 220.144,308.026 220.709,308.066 C220.337,309.206 219.875,310.304 219.355,311.37 L219.355,311.37 Z M208.787,322.623 C208.545,321.782 208.282,320.951 207.969,320.143 C210.37,318.262 213.263,316.86 216.443,316.03 C214.349,318.697 211.753,320.942 208.787,322.623 L208.787,322.623 Z M195,298 L195,305.047 C190.584,302.488 185.472,301 180,301 L180,298 L195,298 Z M195.683,294 L180.667,294 L187.334,284 L202.503,284 L195.683,294 Z M207,299 L207,306.543 C205.97,306.994 204.966,307.489 204,308.049 L204,299 L207,299 Z M202,297 L202,309 L202.508,309 C202.089,309.276 201.657,309.534 201.254,309.831 C200.539,309.114 199.784,308.437 199,307.795 L199,295 L198.969,295 L205.459,285.188 L212,295 L212,304.834 C210.978,305.079 209.979,305.382 209,305.729 L209,297 L202,297 Z M200.279,325.618 C197.899,316.632 189.735,310 180,310 C177.404,310 174.933,310.497 172.644,311.366 C171.918,309.878 171.333,308.314 170.899,306.683 C173.733,305.61 176.79,305 180,305 C192.05,305 202.132,313.216 205.073,324.34 C203.537,324.913 201.937,325.344 200.279,325.618 L200.279,325.618 Z M196,325.999 C187.169,325.999 179.378,321.587 174.679,314.855 C176.352,314.297 178.138,313.988 180,313.988 C187.647,313.988 194.086,319.045 196.228,325.988 C196.151,325.989 196.077,325.999 196,325.999 L196,325.999 Z M196,270 C179.432,270 166,283.432 166,300 C166,316.568 179.432,330 196,330 C212.569,330 226,316.568 226,300 C226,283.432 212.569,270 196,270 L196,270 Z" id="mountainview_logo"></path>
        </g>
    </g>
</svg>